# xmcd CD database file
#
# Track frame offsets:
#	182
#	20170
#	63500
#	91487
#	114660
#	123315
#	152905
#	176087
#	203057
#
# Disc length: 2860 seconds
#
# Revision: 0
# Processed by: cddbd v1.5PL3 Copyright (c) Steve Scherf et al.
# Submitted via: CDex 1.51
#
DISCID=7d0b2a09
DTITLE=Eric Le Lann - Cap Frehel
DYEAR=1992
DGENRE=Jazz
TTITLE0=Cap Frehel
TTITLE1=Nuit à crédit
TTITLE2=Footprints
TTITLE3=Marion la nuit
TTITLE4=Paquerette
TTITLE5=Richard Lenoir
TTITLE6=To Bix
TTITLE7=Petoucas
TTITLE8=Scorpion ascendant Belon
EXTD=YEAR: 1992
EXTT0=
EXTT1=
EXTT2=
EXTT3=
EXTT4=
EXTT5=
EXTT6=
EXTT7=
EXTT8=
PLAYORDER=
